# xmcd
#
# Track frame offsets:
# 150
# 14484
# 32924
# 47476
# 65569
# 79976
# 92762
# 105157
# 120711
# 134858
# 148998
# 162366
# 173885
# 186544
# 211045
# 228468
# 239782
# 256466
# 273365
# 292958
#
# Disc length: 4139 seconds
#
# Revision: 0
# Processed by: cddbd v1.5.1PL0 Copyright (c) Steve Scherf et al.
# Submitted via: Axialis_AX_CDPlayer 2.6
#
DISCID=32102914
DTITLE=Various Artist - Jack Collie (1928-2004)
DYEAR=1900
DGENRE=
TTITLE0=Peace In The Valley
TTITLE1=Cool Water
TTITLE2=Old Shep
TTITLE3=Who At My Door Is Standing
TTITLE4=Don't Worry
TTITLE5=Whispering Hope
TTITLE6=The Prodigal Son
TTITLE7=In The Garden
TTITLE8=Rainbow At Midnight
TTITLE9=Just A Closer Walk With Thee
TTITLE10=Tennessee Waltz
TTITLE11=The Old Rugged Cross
TTITLE12=Blue Shadows On The Trail
TTITLE13=How Great Thou Art
TTITLE14=Shifting Whispering Sands
TTITLE15=Cattle Call
TTITLE16=Steal Away
TTITLE17=Tumbling Tumbleweeds
TTITLE18=El Paso
TTITLE19=Goin' Home
EXTD=
EXTT0=Red Foley
EXTT1=Bry Cox
EXTT2=Red Foley
EXTT3=Bry Cox
EXTT4=Marty Robbins
EXTT5=Bry Cox
EXTT6=Roy Acuff
EXTT7=Bry Cox
EXTT8=Ernest Tubb
EXTT9=Bry Cox
EXTT10=Pee Wee King
EXTT11=Bry Cox
EXTT12=Roy Rogers
EXTT13=Bry Cox
EXTT14=Bry Cox
EXTT15=Bry Cox
EXTT16=Red Foley
EXTT17=Bry Cox
EXTT18=Marty Robbins
EXTT19=Bry Cox
PLAYORDER=
